<svg id="visual" viewBox="0 0 960 540" width="960" height="540" xmlns="http://www.w3.org/2000/svg" xmlns:xlink="http://www.w3.org/1999/xlink" version="1.1"><rect x="0" y="0" width="960" height="540" fill="#001220"></rect><path d="M0 386L22.8 380.3C45.7 374.7 91.3 363.3 137 359.3C182.7 355.3 228.3 358.7 274 363.5C319.7 368.3 365.3 374.7 411.2 374.2C457 373.7 503 366.3 548.8 364.7C594.7 363 640.3 367 686 372.3C731.7 377.7 777.3 384.3 823 389.7C868.7 395 914.3 399 937.2 401L960 403L960 541L937.2 541C914.3 541 868.7 541 823 541C777.3 541 731.7 541 686 541C640.3 541 594.7 541 548.8 541C503 541 457 541 411.2 541C365.3 541 319.7 541 274 541C228.3 541 182.7 541 137 541C91.3 541 45.7 541 22.8 541L0 541Z" fill="#fa7268"></path><path d="M0 354L22.8 354.5C45.7 355 91.3 356 137 365.3C182.7 374.7 228.3 392.3 274 398.3C319.7 404.3 365.3 398.7 411.2 397.8C457 397 503 401 548.8 403.3C594.7 405.7 640.3 406.3 686 402.3C731.7 398.3 777.3 389.7 823 391.3C868.7 393 914.3 405 937.2 411L960 417L960 541L937.2 541C914.3 541 868.7 541 823 541C777.3 541 731.7 541 686 541C640.3 541 594.7 541 548.8 541C503 541 457 541 411.2 541C365.3 541 319.7 541 274 541C228.3 541 182.7 541 137 541C91.3 541 45.7 541 22.8 541L0 541Z" fill="#ef5f67"></path><path d="M0 416L22.8 422.2C45.7 428.3 91.3 440.7 137 439.7C182.7 438.7 228.3 424.3 274 415.7C319.7 407 365.3 404 411.2 402C457 400 503 399 548.8 407.2C594.7 415.3 640.3 432.7 686 442.5C731.7 452.3 777.3 454.7 823 451.3C868.7 448 914.3 439 937.2 434.5L960 430L960 541L937.2 541C914.3 541 868.7 541 823 541C777.3 541 731.7 541 686 541C640.3 541 594.7 541 548.8 541C503 541 457 541 411.2 541C365.3 541 319.7 541 274 541C228.3 541 182.7 541 137 541C91.3 541 45.7 541 22.8 541L0 541Z" fill="#e34c67"></path><path d="M0 488L22.8 487.7C45.7 487.3 91.3 486.7 137 483C182.7 479.3 228.3 472.7 274 468.8C319.7 465 365.3 464 411.2 461.2C457 458.3 503 453.7 548.8 451.5C594.7 449.3 640.3 449.7 686 455.5C731.7 461.3 777.3 472.7 823 472.8C868.7 473 914.3 462 937.2 456.5L960 451L960 541L937.2 541C914.3 541 868.7 541 823 541C777.3 541 731.7 541 686 541C640.3 541 594.7 541 548.8 541C503 541 457 541 411.2 541C365.3 541 319.7 541 274 541C228.3 541 182.7 541 137 541C91.3 541 45.7 541 22.8 541L0 541Z" fill="#d53867"></path><path d="M0 496L22.8 493C45.7 490 91.3 484 137 481.3C182.7 478.7 228.3 479.3 274 478.5C319.7 477.7 365.3 475.3 411.2 481C457 486.7 503 500.3 548.8 506.8C594.7 513.3 640.3 512.7 686 507.8C731.7 503 777.3 494 823 491.3C868.7 488.7 914.3 492.3 937.2 494.2L960 496L960 541L937.2 541C914.3 541 868.7 541 823 541C777.3 541 731.7 541 686 541C640.3 541 594.7 541 548.8 541C503 541 457 541 411.2 541C365.3 541 319.7 541 274 541C228.3 541 182.7 541 137 541C91.3 541 45.7 541 22.8 541L0 541Z" fill="#c62368"></path></svg>